<svg width="64" height="65" viewBox="0 0 64 65" fill="none" xmlns="http://www.w3.org/2000/svg">
<g id="&#240;&#159;&#166;&#134; emoji &#34;angry face&#34;">
<path id="Vector" d="M32 0.206894C14.3275 0.206894 0 14.5344 0 32.2069C0 49.8794 14.3275 64.2069 32 64.2069C49.6725 64.2069 64 49.8794 64 32.2069C64 14.5344 49.6725 0.206894 32 0.206894ZM32 61.5402C15.8251 61.5402 2.66667 48.3818 2.66667 32.2069C2.66667 16.032 15.8251 2.87356 32 2.87356C48.1739 2.87356 61.3333 16.032 61.3333 32.2069C61.3333 48.3818 48.1739 61.5402 32 61.5402Z" fill="#ECE3CE"/>
<path id="Vector_2" d="M31.9996 42.6965C27.1591 42.6965 23.3788 45.9583 21.5068 49.6213C21.0055 50.6005 21.6721 51.6607 22.4124 51.0495C28.5543 45.9605 35.4087 45.9295 41.5879 51.0495C42.3271 51.6607 42.9937 50.6005 42.4924 49.6213C40.6204 45.9583 36.8412 42.6965 31.9996 42.6965Z" fill="#ECE3CE"/>
<path id="Vector_3" d="M24.319 30.8192C24.3574 30.7381 24.367 30.6496 24.3648 30.5568C25.5414 31.4453 26.6742 32.4416 27.8443 33.6106C27.6278 31.6 26.6443 29.713 25.3216 28.1546C23.9883 26.5962 22.2795 25.3376 20.4192 24.4842C18.5526 23.6192 16.5046 23.1381 14.4566 23.12C12.415 23.1114 10.4022 23.568 8.71045 24.672C10.3435 24.8298 11.7878 25.0549 13.2032 25.3813C13.1424 25.4346 13.0902 25.4944 13.056 25.568C11.6043 28.6784 12.9494 32.3744 16.0576 33.8261C19.1712 35.2757 22.8672 33.9296 24.319 30.8192Z" fill="#ECE3CE"/>
<path id="Vector_4" d="M49.543 23.1189C47.495 23.1381 45.447 23.6192 43.5803 24.4832C41.7201 25.3376 40.0113 26.5952 38.6779 28.1536C37.3553 29.712 36.3718 31.5989 36.1553 33.6096C37.3254 32.4394 38.4582 31.4442 39.6347 30.5557C39.6326 30.6485 39.6422 30.737 39.6806 30.8181C41.1323 33.9285 44.8283 35.2746 47.9409 33.824C51.0491 32.3722 52.3953 28.6762 50.9425 25.5658C50.9083 25.4933 50.8561 25.4325 50.7953 25.3792C52.2107 25.0528 53.6561 24.8277 55.2881 24.6698C53.5974 23.5669 51.5846 23.1114 49.543 23.1189Z" fill="#ECE3CE"/>
</g>
</svg>
