<svg width="64" height="67" viewBox="0 0 64 67" fill="none" xmlns="http://www.w3.org/2000/svg">
<g id="&#240;&#159;&#166;&#134; emoji &#34;nauseated face&#34;">
<path id="Vector" d="M32 0C14.3275 0 0 14.8215 0 33.1034C0 51.3854 14.3275 66.2069 32 66.2069C49.6757 66.2069 64 51.3854 64 33.1034C64 14.8215 49.6747 0 32 0ZM32 64C15.5317 64 2.13333 50.1396 2.13333 33.1034C2.13333 16.0673 15.5317 2.2069 32 2.2069C48.4693 2.2069 61.8667 16.0673 61.8667 33.1034C61.8667 50.1396 48.4683 64 32 64Z" fill="#ECE3CE"/>
<path id="Vector_2" d="M19.7351 32.5153C22.386 32.5153 24.5351 30.2922 24.5351 27.5498C24.5351 24.8074 22.386 22.5843 19.7351 22.5843C17.0841 22.5843 14.9351 24.8074 14.9351 27.5498C14.9351 30.2922 17.0841 32.5153 19.7351 32.5153Z" fill="#ECE3CE"/>
<path id="Vector_3" d="M44.2712 32.5153C46.9222 32.5153 49.0712 30.2922 49.0712 27.5498C49.0712 24.8074 46.9222 22.5843 44.2712 22.5843C41.6202 22.5843 39.4712 24.8074 39.4712 27.5498C39.4712 30.2922 41.6202 32.5153 44.2712 32.5153Z" fill="#ECE3CE"/>
<path id="Vector_4" d="M37.1117 42.6947H26.8941C26.5357 39.6944 25.0519 37.2624 23.1021 36.3719C24.1911 38.5358 24.8439 41.2017 24.8439 44.0961C24.8439 46.9926 24.1922 49.6586 23.1021 51.8213C25.053 50.9308 26.5367 48.4955 26.8941 45.4952H37.1117C37.4679 48.4966 38.9495 50.9319 40.9015 51.8213C39.8125 49.6586 39.1618 46.9926 39.1618 44.0961C39.1618 41.2017 39.8114 38.5358 40.9015 36.3719C38.9517 37.2635 37.4701 39.6955 37.1117 42.6947Z" fill="#ECE3CE"/>
<path id="Vector_5" d="M26.6587 17.1918C27.2357 16.6742 25.6229 14.9176 25.1504 15.3446C21.6987 18.3592 17.1248 19.6271 12.6768 18.8017C12.0603 18.677 11.5163 21.0318 12.2661 21.1807C17.3957 22.1341 22.6725 20.672 26.6587 17.1918Z" fill="#ECE3CE"/>
<path id="Vector_6" d="M51.3197 18.634C46.8738 19.4594 42.301 18.1927 38.8493 15.1769C38.3768 14.7477 36.764 16.5066 37.3432 17.0241C41.324 20.5022 46.6018 21.9664 51.7346 21.0131C52.4845 20.8641 51.9384 18.5082 51.3197 18.634Z" fill="#ECE3CE"/>
</g>
</svg>
