<svg width="64" height="65" viewBox="0 0 64 65" fill="none" xmlns="http://www.w3.org/2000/svg">
<g id="&#240;&#159;&#166;&#134; emoji &#34;face with open mouth&#34;">
<path id="Vector" d="M32 0.206894C14.3275 0.206894 0 14.5344 0 32.2069C0 49.8794 14.3275 64.2069 32 64.2069C49.6725 64.2069 64 49.8794 64 32.2069C64 14.5344 49.6725 0.206894 32 0.206894ZM32 61.5402C15.8251 61.5402 2.66667 48.3818 2.66667 32.2069C2.66667 16.032 15.8251 2.87356 32 2.87356C48.1749 2.87356 61.3333 16.032 61.3333 32.2069C61.3333 48.3818 48.1749 61.5402 32 61.5402Z" fill="#ECE3CE"/>
<path id="Vector_2" d="M32.0004 53.6885C36.1241 53.6885 39.467 50.3455 39.467 46.2218C39.467 42.0981 36.1241 38.7551 32.0004 38.7551C27.8766 38.7551 24.5337 42.0981 24.5337 46.2218C24.5337 50.3455 27.8766 53.6885 32.0004 53.6885Z" fill="#ECE3CE"/>
<path id="Vector_3" d="M19.4645 29.5882C22.1155 29.5882 24.2645 27.4392 24.2645 24.7882C24.2645 22.1372 22.1155 19.9882 19.4645 19.9882C16.8136 19.9882 14.6646 22.1372 14.6646 24.7882C14.6646 27.4392 16.8136 29.5882 19.4645 29.5882Z" fill="#ECE3CE"/>
<path id="Vector_4" d="M43.466 29.5882C46.117 29.5882 48.266 27.4392 48.266 24.7882C48.266 22.1372 46.117 19.9882 43.466 19.9882C40.815 19.9882 38.666 22.1372 38.666 24.7882C38.666 27.4392 40.815 29.5882 43.466 29.5882Z" fill="#ECE3CE"/>
</g>
</svg>
