<svg width="64" height="64" viewBox="0 0 64 64" fill="none" xmlns="http://www.w3.org/2000/svg">
<g id="&#240;&#159;&#166;&#134; emoji &#34;smiling face with open mouth and smiling eyes&#34;">
<path id="Vector" d="M32.0021 0C14.3253 0 0 14.3253 0 32C0 49.6747 14.3253 64 32.0011 64C49.6747 64 64 49.6747 64 32C64 14.3253 49.6747 0 32.0021 0ZM32.0021 61.3333C15.8261 61.3333 2.66667 48.1749 2.66667 32C2.66667 15.8251 15.8261 2.66667 32.0021 2.66667C48.1749 2.66667 61.3333 15.8251 61.3333 32C61.3333 48.1749 48.1749 61.3333 32.0021 61.3333Z" fill="#ECE3CE"/>
<path id="Vector_2" d="M26.9553 27.5125C27.4662 28.0523 28.4892 27.0603 28.2929 26.512C26.31 21.0603 23.3222 18.3307 20.3345 18.3307C17.3478 18.3307 14.3601 21.0603 12.3782 26.512C12.182 27.0603 13.2038 28.0512 13.7158 27.5125C15.638 25.4859 17.9377 24.6773 20.3356 24.6773C22.7345 24.6773 25.0353 25.4859 26.9553 27.5125Z" fill="#ECE3CE"/>
<path id="Vector_3" d="M43.6628 18.3317C40.675 18.3317 37.6873 21.0613 35.7044 26.513C35.5081 27.0613 36.531 28.0522 37.042 27.5136C38.9652 25.4869 41.2628 24.6784 43.6628 24.6784C46.0628 24.6784 48.3604 25.4869 50.2836 27.5136C50.7945 28.0533 51.8174 27.0613 51.6212 26.513C49.6372 21.0602 46.6494 18.3317 43.6628 18.3317Z" fill="#ECE3CE"/>
<path id="Vector_4" d="M48.1904 36.2496C44.4965 35.5435 39.0363 34.816 32.0005 34.816H31.9984C24.9648 34.816 19.5045 35.5435 15.8107 36.2496C14.3707 36.5248 13.8672 37.5979 13.8672 38.4544C13.8672 46.2101 19.8533 54.0171 31.9995 54.0171C44.1477 54.0171 50.1339 46.2112 50.1339 38.4544C50.1339 37.5979 49.6293 36.5248 48.1904 36.2496ZM46.9072 40.288C46.8485 40.7605 46.7611 41.328 46.6235 41.9445C46.4731 42.6283 46.344 42.9429 45.2731 42.8149C43.2251 42.5707 20.7749 42.5707 18.7269 42.8149C17.656 42.9419 17.5291 42.6272 17.3765 41.9445C17.2411 41.328 17.1515 40.7616 17.0939 40.288C16.9979 39.4965 17.0821 38.9355 18.4624 38.7029C20.8037 38.3115 25.7563 37.6235 31.9995 37.6235C38.2427 37.6235 43.1952 38.3115 45.5365 38.7029C46.9168 38.9355 47.0021 39.4955 46.9072 40.288Z" fill="#ECE3CE"/>
</g>
</svg>
