<svg width="64" height="64" viewBox="0 0 64 64" fill="none" xmlns="http://www.w3.org/2000/svg">
<g id="&#240;&#159;&#166;&#134; emoji &#34;neutral face&#34;">
<path id="Vector" d="M32 0C14.3275 0 0 14.3275 0 32C0 49.6725 14.3275 64 32 64C49.6704 64 64 49.6725 64 32C64 14.3275 49.6704 0 32 0ZM32 61.3333C15.8251 61.3333 2.66667 48.1749 2.66667 32C2.66667 15.8251 15.8251 2.66667 32 2.66667C48.1739 2.66667 61.3333 15.8251 61.3333 32C61.3333 48.1749 48.1739 61.3333 32 61.3333Z" fill="#ECE3CE"/>
<path id="Vector_2" d="M19.7332 32.6314C22.6788 32.6314 25.0666 30.2436 25.0666 27.2981C25.0666 24.3526 22.6788 21.9648 19.7332 21.9648C16.7877 21.9648 14.3999 24.3526 14.3999 27.2981C14.3999 30.2436 16.7877 32.6314 19.7332 32.6314Z" fill="#ECE3CE"/>
<path id="Vector_3" d="M44.264 32.6314C47.2095 32.6314 49.5973 30.2436 49.5973 27.2981C49.5973 24.3526 47.2095 21.9648 44.264 21.9648C41.3185 21.9648 38.9307 24.3526 38.9307 27.2981C38.9307 30.2436 41.3185 32.6314 44.264 32.6314Z" fill="#ECE3CE"/>
<path id="Vector_4" d="M39.3288 44.8H24.6685C23.0643 44.8 23.0643 49.0667 24.6685 49.0667H39.3288C40.9331 49.0667 40.9331 44.8 39.3288 44.8Z" fill="#ECE3CE"/>
</g>
</svg>
