<svg width="64" height="64" viewBox="0 0 64 64" fill="none" xmlns="http://www.w3.org/2000/svg">
<g id="&#240;&#159;&#166;&#134; emoji &#34;slightly frowning face&#34;">
<path id="Vector" d="M32 0C14.3275 0 0 14.3275 0 32C0 49.6725 14.3275 64 32 64C49.6725 64 64 49.6725 64 32C64 14.3275 49.6725 0 32 0ZM32 61.3333C15.8251 61.3333 2.66667 48.1749 2.66667 32C2.66667 15.8251 15.8251 2.66667 32 2.66667C48.1749 2.66667 61.3333 15.8251 61.3333 32C61.3333 48.1749 48.1749 61.3333 32 61.3333Z" fill="#ECE3CE"/>
<path id="Vector_2" d="M19.7332 31.5648C22.6788 31.5648 25.0666 29.177 25.0666 26.2315C25.0666 23.2859 22.6788 20.8981 19.7332 20.8981C16.7877 20.8981 14.3999 23.2859 14.3999 26.2315C14.3999 29.177 16.7877 31.5648 19.7332 31.5648Z" fill="#ECE3CE"/>
<path id="Vector_3" d="M44.266 31.5648C47.2115 31.5648 49.5993 29.177 49.5993 26.2315C49.5993 23.2859 47.2115 20.8981 44.266 20.8981C41.3204 20.8981 38.9326 23.2859 38.9326 26.2315C38.9326 29.177 41.3204 31.5648 44.266 31.5648Z" fill="#ECE3CE"/>
<path id="Vector_4" d="M32.0001 40.3136C27.1585 40.3136 23.3793 43.5755 21.5084 47.2373C21.006 48.2165 21.6726 49.2779 22.4129 48.6667C28.5921 43.5456 35.4465 43.5776 41.5884 48.6667C42.3276 49.2779 42.9942 48.2165 42.4929 47.2373C40.6209 43.5755 36.8396 40.3136 32.0001 40.3136Z" fill="#ECE3CE"/>
</g>
</svg>
