<svg width="64" height="65" viewBox="0 0 64 65" fill="none" xmlns="http://www.w3.org/2000/svg">
<g id="&#240;&#159;&#166;&#134; emoji &#34;fearful face&#34;">
<path id="Vector" d="M32 0.206894C14.3275 0.206894 0 14.5344 0 32.2069C0 49.8794 14.3275 64.2069 32 64.2069C49.6725 64.2069 64 49.8794 64 32.2069C64 14.5344 49.6725 0.206894 32 0.206894ZM32 61.5402C15.8251 61.5402 2.66667 48.3818 2.66667 32.2069C2.66667 24.1248 5.95307 16.7957 11.2587 11.4848C11.648 12.0256 12.3051 12.5066 12.5813 12.2645C16.0352 9.35036 20.608 8.12476 25.0539 8.92263C25.6704 9.04316 26.2165 6.76689 25.4667 6.62289C22.3541 6.06503 19.1925 6.37756 16.2944 7.45063C20.8384 4.55783 26.2251 2.87356 32 2.87356C38.0597 2.87356 43.6971 4.72103 48.3765 7.88156C45.2992 6.59409 41.888 6.18129 38.5333 6.78396C37.7835 6.92796 38.3275 9.20529 38.944 9.08369C43.392 8.28583 47.9648 9.51036 51.4165 12.4256C51.7077 12.6794 52.432 12.1312 52.8096 11.5562C58.0736 16.8608 61.3333 24.1589 61.3333 32.2069C61.3333 48.3818 48.1739 61.5402 32 61.5402Z" fill="#ECE3CE"/>
<path id="Vector_2" d="M30.1335 24.5109C30.1335 18.1877 24.9901 13.0442 18.6669 13.0442C12.3437 13.0442 7.2002 18.1877 7.2002 24.5109C7.2002 30.8341 12.3437 35.9775 18.6669 35.9775C24.9901 35.9775 30.1335 30.8341 30.1335 24.5109ZM8.8002 24.5109C8.8002 19.0698 13.2258 14.6442 18.6669 14.6442C24.1079 14.6442 28.5335 19.0698 28.5335 24.5109C28.5335 29.9519 24.1079 34.3775 18.6669 34.3775C13.2258 34.3775 8.8002 29.9519 8.8002 24.5109Z" fill="#ECE3CE"/>
<path id="Vector_3" d="M18.6664 28.2442C20.7283 28.2442 22.3998 26.5727 22.3998 24.5109C22.3998 22.449 20.7283 20.7775 18.6664 20.7775C16.6046 20.7775 14.9331 22.449 14.9331 24.5109C14.9331 26.5727 16.6046 28.2442 18.6664 28.2442Z" fill="#ECE3CE"/>
<path id="Vector_4" d="M45.3334 13.0442C39.0102 13.0442 33.8667 18.1877 33.8667 24.5109C33.8667 30.8341 39.0102 35.9775 45.3334 35.9775C51.6566 35.9775 56.8 30.8341 56.8 24.5109C56.8 18.1877 51.6566 13.0442 45.3334 13.0442ZM45.3334 34.3775C39.8923 34.3775 35.4667 29.9519 35.4667 24.5109C35.4667 19.0698 39.8923 14.6442 45.3334 14.6442C50.7744 14.6442 55.2 19.0698 55.2 24.5109C55.2 29.9519 50.7744 34.3775 45.3334 34.3775Z" fill="#ECE3CE"/>
<path id="Vector_5" d="M45.3329 28.2442C47.3948 28.2442 49.0663 26.5727 49.0663 24.5109C49.0663 22.449 47.3948 20.7775 45.3329 20.7775C43.2711 20.7775 41.5996 22.449 41.5996 24.5109C41.5996 26.5727 43.2711 28.2442 45.3329 28.2442Z" fill="#ECE3CE"/>
<path id="Vector_6" d="M32 38.6069C21.5541 38.6069 17.1104 41.1744 15.2811 45.0069C14.3019 47.0549 15.7003 50.3402 15.7003 50.3402C17.4464 54.4821 17.2021 55.6736 32.0021 55.6736C46.7829 55.6736 46.5547 54.4821 48.2997 50.3402C48.2997 50.3402 49.696 47.0549 48.7211 45.0069C46.8917 41.1744 42.448 38.6069 32 38.6069ZM44.1205 43.9029L43.9125 44.5034C43.8165 44.7797 43.4976 45.0069 43.2043 45.0069H20.7957C20.5024 45.0069 20.1835 44.7797 20.0875 44.5024L19.8795 43.9018C19.7835 43.6245 19.888 43.2426 20.1109 43.0517C20.1109 43.0517 22.8256 40.7392 32 40.7392C41.1744 40.7392 43.8891 43.0517 43.8891 43.0517C44.112 43.2437 44.2165 43.6256 44.1205 43.9029Z" fill="#ECE3CE"/>
</g>
</svg>
